<svg width="328" height="329" viewBox="0 0 328 329" fill="none" xmlns="http://www.w3.org/2000/svg">
<path d="M215.899 36.0969C224.087 26.591 226.231 14.747 220.688 9.64249C215.144 4.53802 204.013 8.1061 195.826 17.612C187.638 27.1179 185.494 38.962 191.037 44.0664C196.58 49.1709 207.711 45.6028 215.899 36.0969Z" fill="#2F2E41"/>
<path d="M248.149 129.894C280.375 129.894 306.499 102.883 306.499 69.5618C306.499 36.2411 280.375 9.22925 248.149 9.22925C215.924 9.22925 189.8 36.2411 189.8 69.5618C189.8 102.883 215.924 129.894 248.149 129.894Z" fill="#2F2E41"/>
<path d="M77.633 42.9716L23.3978 47.5598C21.2634 47.7404 19.2618 48.7042 17.7546 50.2772C16.2473 51.8503 15.3338 53.9288 15.179 56.1373L13.154 85.0331C13.0648 86.3048 13.2301 87.5819 13.6396 88.7846C14.049 89.9873 14.6937 91.0899 15.5336 92.0235C16.3735 92.9571 17.3904 93.7017 18.5209 94.2108C19.6515 94.72 20.8714 94.9828 22.1045 94.9828H46.5485V96.3386H56.3827V94.9828H61.6276V96.3386H71.4618V94.9828H76.704C79.0045 94.9828 81.2172 94.0693 82.885 92.4309C84.5529 90.7926 85.5485 88.5545 85.6663 86.179L87.327 52.6949C87.3925 51.3743 87.1843 50.0544 86.7162 48.8238C86.2482 47.5932 85.5311 46.4802 84.6132 45.5595C83.6952 44.6387 82.5975 43.9315 81.3937 43.4852C80.1898 43.0389 78.9076 42.8637 77.633 42.9716Z" fill="#2F2E41"/>
<path d="M112.11 134.301L35.4031 97.0165L21.6353 119.387C21.6353 119.387 61.5213 145.715 63.5945 147.859C66.5447 150.909 98.342 172.263 110.799 168.873C123.255 165.484 117.355 137.69 112.11 134.301Z" fill="#9F616A"/>
<path d="M164.559 305.13L154.725 328.179H256.528L249.133 303.774L164.559 305.13Z" fill="#2F2E41"/>
<path d="M226.842 118.031C226.842 118.031 230.776 140.402 226.842 143.113C222.908 145.825 253.067 179.042 253.067 179.042L265.523 167.517L269.457 141.08C269.457 141.08 257.656 124.132 262.901 109.219C268.146 94.3049 226.842 118.031 226.842 118.031Z" fill="#9F616A"/>
<path d="M238.643 124.81C261.817 124.81 280.602 105.386 280.602 81.425C280.602 57.464 261.817 38.0398 238.643 38.0398C215.47 38.0398 196.684 57.464 196.684 81.425C196.684 105.386 215.47 124.81 238.643 124.81Z" fill="#9F616A"/>
<path d="M249.789 163.45C249.789 163.45 233.398 137.69 224.22 135.656C215.041 133.623 206.518 134.979 201.273 135.656C196.028 136.334 178.327 129.555 167.837 134.301C157.347 139.046 167.837 194.633 167.837 194.633C167.837 194.633 156.036 265.812 161.281 284.115C166.526 302.418 162.592 305.808 159.97 307.841C157.347 309.875 219.63 328.178 219.63 328.178H278.636C278.636 328.178 278.636 308.519 284.536 303.774C290.437 299.029 289.781 198.701 289.781 198.701L309.449 159.383C309.449 159.383 306.171 144.469 292.403 143.791C278.636 143.113 266.346 135.64 266.346 135.64L257 163.45H249.789Z" fill="#D4A12A"/>
<path d="M173.737 137.69L167.837 134.301C167.837 134.301 156.691 134.978 154.725 134.301C152.758 133.623 127.844 125.488 118.01 130.233C108.176 134.978 101.62 128.877 101.62 128.877C101.62 128.877 133.745 157.349 94.4082 166.162C94.4082 166.162 95.0638 169.551 104.898 171.585C114.732 173.618 116.699 175.652 120.633 179.042C124.566 182.431 132.434 185.821 137.679 187.176C142.924 188.532 159.97 200.056 162.592 197.345C165.214 194.633 169.804 185.143 169.804 185.143L173.737 137.69Z" fill="#D4A12A"/>
<path d="M296.993 151.926L309.449 159.383C309.449 159.383 325.84 209.547 323.217 221.749C320.595 233.951 317.972 231.918 321.906 240.052C325.84 248.187 329.773 248.865 327.151 256.322C324.528 263.779 325.84 282.082 321.906 289.538C317.972 296.995 298.96 320.722 282.569 280.726C266.179 240.73 296.993 151.926 296.993 151.926Z" fill="#D4A12A"/>
<path d="M320.595 255.644C320.595 255.644 311.416 236.663 309.449 235.307C307.482 233.951 298.304 187.176 298.304 187.176C298.304 187.176 312.727 162.772 299.615 151.926C299.615 151.926 323.873 116.675 316.005 117.353C308.138 118.031 292.403 143.791 292.403 143.791C292.403 143.791 288.797 142.774 290.109 137.351C291.42 131.928 296.337 112.608 292.403 111.93C288.47 111.252 280.602 140.402 280.602 140.402C280.602 140.402 264.54 170.568 269.457 181.075C272.317 186.972 275.605 192.638 279.291 198.023L290.436 282.082C290.436 282.082 312.072 309.197 320.595 255.644Z" fill="#9F616A"/>
<path d="M73.4287 55.6649C77.4116 55.6649 80.6404 54.1474 80.6404 52.2755C80.6404 50.4035 77.4116 48.886 73.4287 48.886C69.4457 48.886 66.2169 50.4035 66.2169 52.2755C66.2169 54.1474 69.4457 55.6649 73.4287 55.6649Z" fill="#D4A12A"/>
<path d="M29.5026 119.387H20.324C20.324 119.387 0 112.608 0 97.0164C0 81.4248 5.90052 49.5638 24.2577 50.2417C42.6148 50.9196 25.5689 92.949 25.5689 92.949L36.6817 97.6379L36.7143 111.93L29.5026 119.387Z" fill="#9F616A"/>
<path d="M231.759 72.2734C252.398 72.2734 269.129 63.4718 269.129 52.6145C269.129 41.7572 252.398 32.9556 231.759 32.9556C211.12 32.9556 194.389 41.7572 194.389 52.6145C194.389 63.4718 211.12 72.2734 231.759 72.2734Z" fill="#2F2E41"/>
<path d="M282.241 84.4754C284.052 84.4754 285.52 81.1369 285.52 77.0186C285.52 72.9003 284.052 69.5618 282.241 69.5618C280.431 69.5618 278.963 72.9003 278.963 77.0186C278.963 81.1369 280.431 84.4754 282.241 84.4754Z" fill="#9F616A"/>
<path d="M311.319 58.4338C317.996 55.0811 319.05 43.0808 313.672 31.6302C308.294 20.1797 298.522 13.6151 291.845 16.9678C285.167 20.3205 284.114 32.3209 289.492 43.7715C294.87 55.222 304.642 61.7865 311.319 58.4338Z" fill="#2F2E41"/>
</svg>
