<svg width="555" height="511" viewBox="0 0 555 511" fill="none" xmlns="http://www.w3.org/2000/svg">
<g clip-path="url(#clip0)">
<path d="M530.528 18.0377H284.97C271.454 18.0377 260.497 29.2385 260.497 43.0555V382.634C260.497 396.451 271.454 407.651 284.97 407.651H530.528C544.043 407.651 555 396.451 555 382.634V43.0555C555 29.2385 544.043 18.0377 530.528 18.0377Z" fill="#F2F2F2"/>
<path d="M516.412 0.328003H270.854C257.338 0.328003 246.382 11.5288 246.382 25.3457V364.924C246.382 378.741 257.338 389.942 270.854 389.942H516.412C529.928 389.942 540.884 378.741 540.884 364.924V25.3457C540.884 11.5288 529.928 0.328003 516.412 0.328003Z" stroke="#3F3D56" stroke-miterlimit="10"/>
<path d="M523.24 40.6475H261.46V349.622H523.24V40.6475Z" stroke="#3F3D56" stroke-miterlimit="10"/>
<path d="M393.633 26.8925C397.177 26.8925 400.049 23.9558 400.049 20.3333C400.049 16.7108 397.177 13.7742 393.633 13.7742C390.089 13.7742 387.217 16.7108 387.217 20.3333C387.217 23.9558 390.089 26.8925 393.633 26.8925Z" stroke="#3F3D56" stroke-miterlimit="10"/>
<path d="M393.633 384.038C401.429 384.038 407.749 377.578 407.749 369.608C407.749 361.639 401.429 355.178 393.633 355.178C385.837 355.178 379.517 361.639 379.517 369.608C379.517 377.578 385.837 384.038 393.633 384.038Z" stroke="#3F3D56" stroke-miterlimit="10"/>
<path d="M385.607 74.4904C379.96 74.4904 374.37 75.6272 369.153 77.836C363.937 80.0449 359.197 83.2824 355.205 87.3638C351.212 91.4452 348.045 96.2905 345.885 101.623C343.724 106.956 342.612 112.671 342.612 118.443C342.612 142.717 387.654 232.249 387.654 232.249C387.654 232.249 428.601 142.717 428.601 118.443C428.601 106.786 424.071 95.6065 416.008 87.3638C407.945 79.1211 397.009 74.4904 385.607 74.4904ZM385.607 147.745C381.152 147.745 376.798 146.395 373.094 143.865C369.391 141.335 366.504 137.739 364.8 133.532C363.095 129.326 362.649 124.696 363.518 120.23C364.387 115.764 366.532 111.662 369.682 108.442C372.831 105.223 376.844 103.03 381.213 102.142C385.582 101.253 390.11 101.709 394.225 103.452C398.34 105.194 401.857 108.145 404.332 111.931C406.807 115.717 408.128 120.169 408.128 124.722C408.128 130.828 405.755 136.684 401.531 141.002C397.308 145.319 391.579 147.745 385.607 147.745V147.745Z" fill="#F9A826"/>
<path d="M385.613 277.124C409.355 277.124 428.601 270.664 428.601 262.694C428.601 254.724 409.355 248.264 385.613 248.264C361.871 248.264 342.624 254.724 342.624 262.694C342.624 270.664 361.871 277.124 385.613 277.124Z" fill="#F9A826"/>
<path d="M232.189 62.9399C229.454 63.0978 226.816 64.0315 224.571 65.6362C222.326 67.2409 220.563 69.4531 219.479 72.025C216.301 79.8788 220.393 89.1042 226.536 94.8313C232.679 100.558 240.571 103.832 247.741 108.135C257.371 113.914 266.025 121.937 270.843 132.236C275.662 142.534 276.174 155.291 270.51 165.13C265.253 174.262 255.694 179.727 246.576 184.768" stroke="#3F3D56" stroke-miterlimit="10"/>
<path d="M240.286 69.199C246.487 69.199 251.515 66.7029 251.515 63.6237C251.515 60.5446 246.487 58.0485 240.286 58.0485C234.085 58.0485 229.058 60.5446 229.058 63.6237C229.058 66.7029 234.085 69.199 240.286 69.199Z" fill="#57B894"/>
<path d="M249.269 105.93C255.47 105.93 260.497 103.434 260.497 100.355C260.497 97.2759 255.47 94.7797 249.269 94.7797C243.068 94.7797 238.041 97.2759 238.041 100.355C238.041 103.434 243.068 105.93 249.269 105.93Z" fill="#57B894"/>
<path d="M228.737 111.834C234.938 111.834 239.965 109.337 239.965 106.258C239.965 103.179 234.938 100.683 228.737 100.683C222.536 100.683 217.509 103.179 217.509 106.258C217.509 109.337 222.536 111.834 228.737 111.834Z" fill="#57B894"/>
<path d="M260.818 142.662C267.019 142.662 272.046 140.165 272.046 137.086C272.046 134.007 267.019 131.511 260.818 131.511C254.617 131.511 249.59 134.007 249.59 137.086C249.59 140.165 254.617 142.662 260.818 142.662Z" fill="#57B894"/>
<path d="M283.275 142.662C289.476 142.662 294.503 140.165 294.503 137.086C294.503 134.007 289.476 131.511 283.275 131.511C277.073 131.511 272.046 134.007 272.046 137.086C272.046 140.165 277.073 142.662 283.275 142.662Z" fill="#57B894"/>
<path d="M30.4709 510.672H260.497" stroke="#3F3D56" stroke-miterlimit="10"/>
<path d="M22.0351 397.04C19.4882 397.187 17.0318 398.057 14.9413 399.551C12.8507 401.045 11.2087 403.105 10.1992 405.5C7.23965 412.814 11.0503 421.404 16.7708 426.737C22.4913 432.07 29.8396 435.119 36.5162 439.125C45.4839 444.507 53.5422 451.978 58.0293 461.568C62.5163 471.158 62.9936 483.037 57.7192 492.199C52.8237 500.702 43.9221 505.792 35.4323 510.485" stroke="#3F3D56" stroke-miterlimit="10"/>
<path d="M29.5747 402.869C35.3493 402.869 40.0305 400.544 40.0305 397.677C40.0305 394.81 35.3493 392.485 29.5747 392.485C23.8002 392.485 19.119 394.81 19.119 397.677C19.119 400.544 23.8002 402.869 29.5747 402.869Z" fill="#57B894"/>
<path d="M37.9394 437.073C43.7139 437.073 48.3951 434.748 48.3951 431.881C48.3951 429.014 43.7139 426.689 37.9394 426.689C32.1648 426.689 27.4836 429.014 27.4836 431.881C27.4836 434.748 32.1648 437.073 37.9394 437.073Z" fill="#57B894"/>
<path d="M18.8204 442.57C24.5949 442.57 29.2761 440.245 29.2761 437.378C29.2761 434.511 24.5949 432.186 18.8204 432.186C13.0458 432.186 8.36462 434.511 8.36462 437.378C8.36462 440.245 13.0458 442.57 18.8204 442.57Z" fill="#57B894"/>
<path d="M48.6939 471.277C54.4684 471.277 59.1496 468.952 59.1496 466.085C59.1496 463.218 54.4684 460.893 48.6939 460.893C42.9193 460.893 38.2382 463.218 38.2382 466.085C38.2382 468.952 42.9193 471.277 48.6939 471.277Z" fill="#57B894"/>
<path d="M69.6053 471.277C75.3798 471.277 80.061 468.952 80.061 466.085C80.061 463.218 75.3798 460.893 69.6053 460.893C63.8307 460.893 59.1495 463.218 59.1495 466.085C59.1495 468.952 63.8307 471.277 69.6053 471.277Z" fill="#57B894"/>
<path d="M47.3878 418.016C49.4677 418.136 51.4738 418.846 53.1811 420.066C54.8884 421.287 56.2294 422.969 57.0538 424.925C59.4708 430.898 56.3587 437.913 51.687 442.269C47.0152 446.624 41.0141 449.113 35.5616 452.386C28.2379 456.781 21.657 462.882 17.9926 470.714C14.3281 478.545 13.9384 488.247 18.2458 495.729C22.2438 502.673 29.5134 506.83 36.4468 510.663" stroke="#3F3D56" stroke-miterlimit="10"/>
<path d="M41.2305 422.776C45.9464 422.776 49.7694 420.878 49.7694 418.536C49.7694 416.194 45.9464 414.296 41.2305 414.296C36.5146 414.296 32.6917 416.194 32.6917 418.536C32.6917 420.878 36.5146 422.776 41.2305 422.776Z" fill="#57B894"/>
<path d="M34.3993 450.709C39.1152 450.709 42.9382 448.811 42.9382 446.469C42.9382 444.128 39.1152 442.229 34.3993 442.229C29.6834 442.229 25.8605 444.128 25.8605 446.469C25.8605 448.811 29.6834 450.709 34.3993 450.709Z" fill="#57B894"/>
<path d="M50.0132 455.198C54.7291 455.198 58.5521 453.3 58.5521 450.958C58.5521 448.617 54.7291 446.719 50.0132 446.719C45.2973 446.719 41.4744 448.617 41.4744 450.958C41.4744 453.3 45.2973 455.198 50.0132 455.198Z" fill="#57B894"/>
<path d="M25.6166 478.642C30.3325 478.642 34.1555 476.744 34.1555 474.402C34.1555 472.061 30.3325 470.163 25.6166 470.163C20.9007 470.163 17.0778 472.061 17.0778 474.402C17.0778 476.744 20.9007 478.642 25.6166 478.642Z" fill="#57B894"/>
<path d="M8.53885 478.642C13.2547 478.642 17.0777 476.744 17.0777 474.402C17.0777 472.061 13.2547 470.163 8.53885 470.163C3.82297 470.163 0 472.061 0 474.402C0 476.744 3.82297 478.642 8.53885 478.642Z" fill="#57B894"/>
<path d="M83.3113 483.74C83.3113 483.74 89.286 486.794 93.4683 487.405C97.6506 488.016 100.003 483.691 99.1255 482.189C98.2481 480.686 101.833 481.908 104.223 487.405C104.223 487.405 114.38 499.621 120.354 500.231C126.329 500.842 126.376 509.111 123.342 509.393C120.056 509.699 114.38 511.836 107.21 509.393C100.04 506.95 93.4683 500.231 90.481 500.231C87.4936 500.231 77.3366 495.345 80.324 492.902C83.3113 490.459 83.3113 483.74 83.3113 483.74Z" fill="#3F3D56"/>
<path d="M142.198 497.54C145.248 497.78 148.316 497.588 151.314 496.968C155.42 495.948 156.034 491.04 154.673 489.978C153.313 488.916 157.085 488.69 161.3 492.887C161.3 492.887 175.167 500.376 180.937 498.676C186.707 496.976 189.752 504.637 187.037 506.05C182.434 508.63 177.316 510.107 172.072 510.367C164.527 510.819 155.972 508.878 153.198 510.012C150.424 511.145 139.218 510.462 141.105 507.06C142.992 503.658 142.198 497.54 142.198 497.54Z" fill="#3F3D56"/>
<path d="M132.041 206.197C144.91 206.197 155.342 195.532 155.342 182.376C155.342 169.22 144.91 158.555 132.041 158.555C119.172 158.555 108.74 169.22 108.74 182.376C108.74 195.532 119.172 206.197 132.041 206.197Z" fill="#FFC1C7"/>
<path d="M113.818 191.843C113.818 191.843 117.403 217.496 109.038 221.161C100.674 224.825 151.459 223.604 151.459 223.604C151.459 223.604 144.289 200.394 146.082 194.286C147.874 188.178 113.818 191.843 113.818 191.843Z" fill="#FFC1C7"/>
<path d="M105.454 337.82C105.454 337.82 103.661 384.24 101.869 389.126C100.076 394.012 98.284 426.995 98.284 426.995L82.7498 486.852L97.089 491.738C97.089 491.738 116.806 456.312 119.195 452.037C121.585 447.761 140.704 379.354 140.704 379.354C140.704 379.354 138.912 421.498 138.912 435.546C138.912 449.594 142.497 500.9 142.497 500.9L153.849 499.678L168.786 434.935C168.786 434.935 190.294 347.593 175.955 337.82C161.616 328.048 105.454 337.82 105.454 337.82Z" fill="#2F2E41"/>
<path d="M192.684 352.479C192.684 352.479 193.282 387.905 186.112 382.408C178.942 376.91 186.112 349.425 186.112 349.425L192.684 352.479Z" fill="#FFC1C7"/>
<path d="M93.5042 340.263C93.5042 340.263 94.1016 375.689 86.932 370.192C79.7623 364.695 86.932 337.21 86.932 337.21L93.5042 340.263Z" fill="#FFC1C7"/>
<path d="M181.332 237.041C181.332 237.041 169.383 222.993 159.226 224.825C149.069 226.658 93.5041 226.047 93.5041 226.047C93.5041 226.047 74.9825 249.868 79.7623 254.754C84.5421 259.64 100.076 346.371 100.076 346.371C100.076 346.371 141.302 340.874 155.641 340.874C169.98 340.874 175.955 338.431 175.955 338.431C175.955 338.431 156.836 299.341 165.798 281.628C174.76 263.916 187.904 244.981 187.904 244.981L181.332 237.041Z" fill="#F9A826"/>
<path d="M177.748 241.317L187.905 244.981C187.905 244.981 193.879 266.359 193.879 283.461C193.879 300.563 194.477 309.114 196.867 315.221C199.256 321.329 207.024 350.036 202.841 356.144C200.532 359.621 197.711 362.711 194.477 365.306L180.735 364.084C180.735 364.084 180.137 343.928 176.553 342.096C172.968 340.264 168.188 328.659 168.188 328.659C168.188 328.659 156.836 291.401 164.006 279.185C171.175 266.969 177.748 241.317 177.748 241.317Z" fill="#F9A826"/>
<path d="M139.509 263.916C139.509 263.916 145.484 237.041 134.132 238.263C122.78 239.484 107.246 240.095 103.064 240.095C98.8814 240.095 74.9826 237.041 71.3978 252.921C67.8129 268.802 63.0332 288.347 73.1902 300.563C73.1902 300.563 76.775 354.312 90.5168 357.976C104.259 361.641 140.704 365.916 153.849 348.204C166.993 330.491 161.616 310.946 161.616 310.946H155.641L139.509 263.916Z" fill="#3F3D56"/>
<path d="M159.226 312.168L164.005 279.185L161.616 313.389L159.226 312.168Z" fill="#3F3D56"/>
<path opacity="0.1" d="M79.1648 304.838C79.1648 304.838 89.3218 309.724 110.233 306.67V315.832L79.1648 313.389V304.838Z" fill="black"/>
<path d="M133.833 237.957L149.367 229.406L136.223 241.011L133.833 237.957Z" fill="#3F3D56"/>
<path d="M166.993 229.101C166.993 229.101 178.942 233.376 178.942 229.101C178.942 224.825 168.188 221.161 161.616 218.718C155.044 216.274 123.975 212.61 119.195 210.777C114.416 208.945 91.7118 205.891 89.9193 213.221C88.1269 220.55 87.5295 235.82 96.4915 237.652C105.454 239.484 128.755 234.598 140.704 235.82C152.654 237.041 166.993 229.101 166.993 229.101Z" fill="#F9A826"/>
<path opacity="0.1" d="M166.993 229.101C166.993 229.101 178.942 233.376 178.942 229.101C178.942 224.825 168.188 221.161 161.616 218.718C155.044 216.274 123.975 212.61 119.195 210.777C114.416 208.945 91.7118 205.891 89.9193 213.221C88.1269 220.55 87.5295 235.82 96.4915 237.652C105.454 239.484 128.755 234.598 140.704 235.82C152.654 237.041 166.993 229.101 166.993 229.101Z" fill="black"/>
<path d="M83.6459 242.843L87.7067 234.124L88.4259 244.676L83.6459 242.843Z" fill="#3F3D56"/>
<path d="M128.003 206.962C140.051 206.962 149.818 195.363 149.818 181.054C149.818 166.745 140.051 155.145 128.003 155.145C115.955 155.145 106.188 166.745 106.188 181.054C106.188 195.363 115.955 206.962 128.003 206.962Z" fill="#2F2E41"/>
<path d="M131.853 181.382C143.901 181.382 153.668 175.068 153.668 167.279C153.668 159.491 143.901 153.177 131.853 153.177C119.805 153.177 110.038 159.491 110.038 167.279C110.038 175.068 119.805 181.382 131.853 181.382Z" fill="#2F2E41"/>
<path d="M148.856 192.532C150.096 192.532 151.101 190.77 151.101 188.597C151.101 186.423 150.096 184.661 148.856 184.661C147.615 184.661 146.61 186.423 146.61 188.597C146.61 190.77 147.615 192.532 148.856 192.532Z" fill="#FFC1C7"/>
<path d="M145.723 163.729C148.018 162.445 149.979 160.123 151.446 156.952C151.59 157.657 151.629 158.38 151.561 159.097C152.514 158.987 153.44 158.702 154.293 158.255L154.088 160.541C155.737 159.509 157.252 158.268 158.598 156.85C158.963 160.185 158.416 163.559 157.018 166.596C155.828 168.998 154.21 170.561 152.61 172.1" fill="#2F2E41"/>
</g>
<defs>
<clipPath id="clip0">
<rect width="555" height="511" fill="white"/>
</clipPath>
</defs>
</svg>
